<?xml version="1.0" encoding="utf-8"?>
<!-- Generator: Adobe Illustrator 17.0.0, SVG Export Plug-In . SVG Version: 6.00 Build 0)  -->
<!DOCTYPE svg PUBLIC "-//W3C//DTD SVG 1.1//EN" "http://www.w3.org/Graphics/SVG/1.1/DTD/svg11.dtd">
<svg version="1.1" id="Capa_1" xmlns="http://www.w3.org/2000/svg" xmlns:xlink="http://www.w3.org/1999/xlink" x="0px" y="0px"
	 width="1080px" height="1080px" viewBox="0 0 1080 1080" enable-background="new 0 0 1080 1080" xml:space="preserve">
<g>
	<g>
		<path fill="#FFFFFF" d="M1079.956,540c0-144.304-56.169-279.704-158.232-381.767C817.606,54.114,679.238,0,539.5,0
			c-86.994,0-174.672,21.006-254.816,64.161C212.76,12.33,142.434,1.142,94.713,1.142c-17.81,0-32.423,1.598-42.698,3.197
			C30.096,7.763,13.2,24.888,9.775,46.808s7.763,43.154,27.628,52.973c41.328,20.321,69.184,60.964,86.537,95.899
			C-53.016,408.71-39.316,724.49,157.961,921.767C260.024,1023.831,395.424,1080,539.728,1080s279.704-56.169,381.767-158.233
			S1079.956,684.304,1079.956,540z M877.656,878.156c-186.317,186.545-489.767,186.545-676.313,0
			C22.79,699.603,14.113,411.907,181.25,223.078c4.338-5.023,6.85-11.188,7.535-17.353c1.598-6.393,1.142-13.243-1.598-19.865
			c-17.125-39.044-46.351-89.277-92.702-123.07h0.228c40.186,0,100.922,10.047,162.799,57.996c0.685,0.685,1.598,1.37,2.512,1.827
			c9.818,9.818,25.116,12.102,37.446,4.795c187.687-110.283,426.292-79.687,580.414,74.436
			C1064.43,388.389,1064.43,691.611,877.656,878.156z"/>
		<circle fill="#FFFFFF" cx="539.728" cy="540" r="37.903"/>
		<circle fill="#FFFFFF" cx="735.179" cy="540" r="37.903"/>
		<circle fill="#FFFFFF" cx="344.278" cy="540" r="37.903"/>
	</g>
</g>
</svg>
