<?xml version="1.0" encoding="utf-8"?>
<!-- Generator: Adobe Illustrator 17.0.0, SVG Export Plug-In . SVG Version: 6.00 Build 0)  -->
<!DOCTYPE svg PUBLIC "-//W3C//DTD SVG 1.1//EN" "http://www.w3.org/Graphics/SVG/1.1/DTD/svg11.dtd">
<svg version="1.1" id="Layer_1" xmlns="http://www.w3.org/2000/svg" xmlns:xlink="http://www.w3.org/1999/xlink" x="0px" y="0px"
	 width="576px" height="506.206px" viewBox="0 0 576 506.206" enable-background="new 0 0 576 506.206" xml:space="preserve">
<g>
	<path fill="#4ACEC4" d="M157.539,127.886c0,10.685-8.662,19.346-19.346,19.346H19.346C8.662,147.233,0,138.571,0,127.886V19.347
		C0,8.662,8.662,0,19.346,0h118.846c10.685,0,19.346,8.662,19.346,19.346V127.886z"/>
</g>
<g>
	<path fill="#4ACEC4" d="M367.121,127.886c0,10.685-8.662,19.346-19.346,19.346H228.929c-10.685,0-19.346-8.662-19.346-19.346
		V19.347C209.582,8.662,218.244,0,228.929,0h118.846c10.685,0,19.346,8.662,19.346,19.346V127.886z"/>
</g>
<g>
	<path fill="#4ACEC4" d="M576.703,127.886c0,10.685-8.662,19.346-19.346,19.346H438.511c-10.685,0-19.346-8.662-19.346-19.346
		V19.347C419.165,8.662,427.826,0,438.511,0h118.846c10.685,0,19.346,8.662,19.346,19.346V127.886z"/>
</g>
<g>
	<path fill="#4ACEC4" d="M157.539,308.376c0,10.685-8.662,19.346-19.346,19.346H19.346C8.662,327.722,0,319.06,0,308.376v-108.54
		c0-10.685,8.662-19.346,19.346-19.346h118.846c10.685,0,19.346,8.662,19.346,19.346V308.376z"/>
</g>
<g>
	<path fill="#4ACEC4" d="M367.121,308.376c0,10.685-8.662,19.346-19.346,19.346H228.929c-10.685,0-19.346-8.662-19.346-19.346
		v-108.54c0-10.685,8.662-19.346,19.346-19.346h118.846c10.685,0,19.346,8.662,19.346,19.346V308.376z"/>
</g>
<g>
	<path fill="#4ACEC4" d="M576.703,308.376c0,10.685-8.662,19.346-19.346,19.346H438.511c-10.685,0-19.346-8.662-19.346-19.346
		v-108.54c0-10.685,8.662-19.346,19.346-19.346h118.846c10.685,0,19.346,8.662,19.346,19.346V308.376z"/>
</g>
<g>
	<path fill="#4ACEC4" d="M157.539,486.86c0,10.685-8.662,19.346-19.346,19.346H19.346C8.662,506.206,0,497.544,0,486.86V378.32
		c0-10.685,8.662-19.346,19.346-19.346h118.846c10.685,0,19.346,8.662,19.346,19.346V486.86z"/>
</g>
<g>
	<path fill="#4ACEC4" d="M367.121,486.86c0,10.685-8.662,19.346-19.346,19.346H228.929c-10.685,0-19.346-8.662-19.346-19.346V378.32
		c0-10.685,8.662-19.346,19.346-19.346h118.846c10.685,0,19.346,8.662,19.346,19.346V486.86z"/>
</g>
<g>
	<path fill="#4ACEC4" d="M576.703,486.86c0,10.685-8.662,19.346-19.346,19.346H438.511c-10.685,0-19.346-8.662-19.346-19.346V378.32
		c0-10.685,8.662-19.346,19.346-19.346h118.846c10.685,0,19.346,8.662,19.346,19.346V486.86z"/>
</g>
</svg>
