<?xml version="1.0" encoding="utf-8"?>
<!-- Generator: Adobe Illustrator 17.0.0, SVG Export Plug-In . SVG Version: 6.00 Build 0)  -->
<!DOCTYPE svg PUBLIC "-//W3C//DTD SVG 1.1//EN" "http://www.w3.org/Graphics/SVG/1.1/DTD/svg11.dtd">
<svg version="1.1" id="Layer_1" xmlns="http://www.w3.org/2000/svg" xmlns:xlink="http://www.w3.org/1999/xlink" x="0px" y="0px"
	 width="576px" height="505.489px" viewBox="0 0 576 505.489" enable-background="new 0 0 576 505.489" xml:space="preserve">
<g>
	<path fill="#FFFFFF" d="M157.315,127.705c0,10.67-8.649,19.319-19.319,19.319H19.319C8.649,147.024,0,138.374,0,127.705V19.319
		C0,8.649,8.649,0,19.319,0h118.678c10.67,0,19.319,8.649,19.319,19.319V127.705z"/>
</g>
<g>
	<path fill="#FFFFFF" d="M366.601,127.705c0,10.67-8.649,19.319-19.319,19.319H228.604c-10.67,0-19.319-8.649-19.319-19.319V19.319
		C209.285,8.649,217.935,0,228.604,0h118.678c10.67,0,19.319,8.649,19.319,19.319V127.705z"/>
</g>
<g>
	<path fill="#FFFFFF" d="M575.886,127.705c0,10.67-8.649,19.319-19.319,19.319H437.89c-10.67,0-19.319-8.649-19.319-19.319V19.319
		C418.571,8.649,427.22,0,437.89,0h118.678c10.67,0,19.319,8.649,19.319,19.319V127.705z"/>
</g>
<g>
	<path fill="#FFFFFF" d="M157.315,307.939c0,10.67-8.649,19.319-19.319,19.319H19.319C8.649,327.258,0,318.608,0,307.939V199.553
		c0-10.67,8.649-19.319,19.319-19.319h118.678c10.67,0,19.319,8.649,19.319,19.319V307.939z"/>
</g>
<g>
	<path fill="#FFFFFF" d="M366.601,307.939c0,10.67-8.649,19.319-19.319,19.319H228.604c-10.67,0-19.319-8.649-19.319-19.319V199.553
		c0-10.67,8.649-19.319,19.319-19.319h118.678c10.67,0,19.319,8.649,19.319,19.319V307.939z"/>
</g>
<g>
	<path fill="#FFFFFF" d="M575.886,307.939c0,10.67-8.649,19.319-19.319,19.319H437.89c-10.67,0-19.319-8.649-19.319-19.319V199.553
		c0-10.67,8.649-19.319,19.319-19.319h118.678c10.67,0,19.319,8.649,19.319,19.319V307.939z"/>
</g>
<g>
	<path fill="#FFFFFF" d="M157.315,486.17c0,10.67-8.649,19.319-19.319,19.319H19.319C8.649,505.489,0,496.839,0,486.17V377.784
		c0-10.67,8.649-19.319,19.319-19.319h118.678c10.67,0,19.319,8.649,19.319,19.319V486.17z"/>
</g>
<g>
	<path fill="#FFFFFF" d="M366.601,486.17c0,10.67-8.649,19.319-19.319,19.319H228.604c-10.67,0-19.319-8.649-19.319-19.319V377.784
		c0-10.67,8.649-19.319,19.319-19.319h118.678c10.67,0,19.319,8.649,19.319,19.319V486.17z"/>
</g>
<g>
	<path fill="#FFFFFF" d="M575.886,486.17c0,10.67-8.649,19.319-19.319,19.319H437.89c-10.67,0-19.319-8.649-19.319-19.319V377.784
		c0-10.67,8.649-19.319,19.319-19.319h118.678c10.67,0,19.319,8.649,19.319,19.319V486.17z"/>
</g>
</svg>
