<?xml version="1.0" encoding="utf-8"?>
<!-- Generator: Adobe Illustrator 17.0.0, SVG Export Plug-In . SVG Version: 6.00 Build 0)  -->
<!DOCTYPE svg PUBLIC "-//W3C//DTD SVG 1.1//EN" "http://www.w3.org/Graphics/SVG/1.1/DTD/svg11.dtd">
<svg version="1.1" id="Capa_1" xmlns="http://www.w3.org/2000/svg" xmlns:xlink="http://www.w3.org/1999/xlink" x="0px" y="0px"
	 width="1080px" height="1080px" viewBox="0 0 1080 1080" enable-background="new 0 0 1080 1080" xml:space="preserve">
<g>
	<path fill="#FFFFFF" d="M889.775,315.415L540.038,623.603L190.225,315.41c-13.929-12.271-35.161-10.923-47.427,2.997
		c-12.262,13.924-10.927,35.156,3.002,47.427L517.83,693.601c6.348,5.591,14.283,8.387,22.213,8.387s15.869-2.796,22.217-8.391
		L934.214,365.83c13.92-12.267,15.26-33.503,2.993-47.427C924.932,304.492,903.704,303.148,889.775,315.415z"/>
	<path fill="#FFFFFF" d="M979.196,172.617H100.804C45.223,172.617,0,217.836,0,273.422v533.152
		c0,55.586,45.223,100.804,100.804,100.804h878.391c55.581,0,100.804-45.219,100.804-100.804V273.422
		C1080,217.84,1034.777,172.617,979.196,172.617z M1012.797,806.574c0,18.526-15.071,33.601-33.601,33.601H100.804
		c-18.53,0-33.601-15.076-33.601-33.601V273.422c0-18.526,15.071-33.601,33.601-33.601h878.391c18.53,0,33.601,15.076,33.601,33.601
		V806.574z"/>
</g>
</svg>
